<svg xmlns="http://www.w3.org/2000/svg" viewBox="0 0 100 100">
  <defs>
    <linearGradient id="flameGradient" x1="0%" y1="100%" x2="100%" y2="0%">
      <stop offset="0%" style="stop-color:#ea580c;stop-opacity:1" />
      <stop offset="100%" style="stop-color:#f97316;stop-opacity:1" />
    </linearGradient>
  </defs>
  <circle cx="50" cy="50" r="45" fill="#0a0a0f"/>
  <path d="M50 15c0 0-25 20-25 45c0 15 11 25 25 25s25-10 25-25c0-25-25-45-25-45zm0 60c-8 0-15-6-15-15c0-12 10-25 15-32c5 7 15 20 15 32c0 9-7 15-15 15z" fill="url(#flameGradient)"/>
  <ellipse cx="50" cy="65" rx="8" ry="12" fill="#fbbf24"/>
</svg>

